<svg xmlns="http://www.w3.org/2000/svg" version="1.1" xmlns:xlink="http://www.w3.org/1999/xlink" xmlns:svgjs="http://svgjs.dev/svgjs" width="1000" height="131" viewBox="0 0 1000 131"><g transform="matrix(1,0,0,1,-0.6060606060606233,-0.5373775387772497)"><svg viewBox="0 0 396 52" data-background-color="#ffffff" preserveAspectRatio="xMidYMid meet" height="131" width="1000" xmlns="http://www.w3.org/2000/svg" xmlns:xlink="http://www.w3.org/1999/xlink"><g id="tight-bounds" transform="matrix(1,0,0,1,0.2400000000000091,0.21331016806425396)"><svg viewBox="0 0 395.52 51.57337966387152" height="51.57337966387152" width="395.52"><g><svg viewBox="0 0 466.78279590330806 60.86561072432433" height="51.57337966387152" width="395.52"><g transform="matrix(1,0,0,1,0,8.411962118918922)"><svg viewBox="0 0 395.52 44.04168648648648" height="44.04168648648648" width="395.52"><g><svg viewBox="0 0 395.52 44.04168648648648" height="44.04168648648648" width="395.52"><g><svg viewBox="0 0 395.52 44.04168648648648" height="44.04168648648648" width="395.52"><g transform="matrix(1,0,0,1,0,0)"><svg width="395.52" viewBox="4.449999809265137 -35.75 323.72998046875 36.04999923706055" height="44.04168648648648" data-palette-color="#ff4949"><path d="M7.95-3.1L28.3-3.1 28.3 0 4.45 0 4.45-35.5 27.85-35.5 27.85-32.4 7.95-32.4 7.95-19.6 25.3-19.6 25.3-16.65 7.95-16.65 7.95-3.1ZM57.15-31.65L55.45-28.85Q54.7-29.7 53.7-30.38 52.7-31.05 51.45-31.55 50.2-32.05 48.77-32.35 47.35-32.65 45.75-32.65L45.75-32.65Q41.1-32.65 38.92-30.88 36.75-29.1 36.75-26.05L36.75-26.05Q36.75-23.95 37.77-22.75 38.8-21.55 41-20.8 43.2-20.05 46.6-19.25L46.6-19.25Q50.4-18.45 53.15-17.35 55.9-16.25 57.4-14.38 58.9-12.5 58.9-9.3L58.9-9.3Q58.9-6.85 57.95-5.05 57-3.25 55.3-2.05 53.6-0.85 51.25-0.28 48.9 0.3 46.1 0.3L46.1 0.3Q43.35 0.3 40.82-0.28 38.3-0.85 36.05-1.98 33.8-3.1 31.85-4.85L31.85-4.85 33.6-7.7Q34.55-6.7 35.87-5.83 37.2-4.95 38.82-4.25 40.45-3.55 42.32-3.18 44.2-2.8 46.2-2.8L46.2-2.8Q50.45-2.8 52.82-4.35 55.2-5.9 55.2-8.95L55.2-8.95Q55.2-11.15 54-12.48 52.8-13.8 50.4-14.65 48-15.5 44.5-16.3L44.5-16.3Q40.8-17.15 38.25-18.2 35.7-19.25 34.42-20.98 33.15-22.7 33.15-25.55L33.15-25.55Q33.15-28.85 34.77-31.13 36.4-33.4 39.25-34.58 42.1-35.75 45.8-35.75L45.8-35.75Q48.15-35.75 50.17-35.27 52.2-34.8 53.92-33.9 55.65-33 57.15-31.65L57.15-31.65ZM68.55 0L65.05 0 65.05-35.5 79.75-35.5Q82.05-35.5 83.97-34.55 85.9-33.6 87.3-31.98 88.7-30.35 89.5-28.38 90.3-26.4 90.3-24.35L90.3-24.35Q90.3-21.45 89.02-18.88 87.75-16.3 85.45-14.7 83.15-13.1 80.05-13.1L80.05-13.1 68.55-13.1 68.55 0ZM68.55-32.4L68.55-16.2 79.9-16.2Q82-16.2 83.55-17.35 85.09-18.5 85.95-20.35 86.8-22.2 86.8-24.35L86.8-24.35Q86.8-26.55 85.8-28.4 84.8-30.25 83.17-31.33 81.55-32.4 79.59-32.4L79.59-32.4 68.55-32.4ZM110.44 0.25L110.44 0.25Q106.69 0.25 103.64-1.25 100.59-2.75 98.39-5.33 96.19-7.9 94.99-11.13 93.79-14.35 93.79-17.75L93.79-17.75Q93.79-21.3 95.04-24.53 96.29-27.75 98.57-30.28 100.84-32.8 103.89-34.27 106.94-35.75 110.49-35.75L110.49-35.75Q114.24-35.75 117.29-34.2 120.34-32.65 122.52-30.05 124.69-27.45 125.89-24.25 127.09-21.05 127.09-17.7L127.09-17.7Q127.09-14.15 125.84-10.93 124.59-7.7 122.34-5.18 120.09-2.65 117.04-1.2 113.99 0.25 110.44 0.25ZM97.29-17.75L97.29-17.75Q97.29-14.85 98.24-12.18 99.19-9.5 100.94-7.43 102.69-5.35 105.12-4.13 107.54-2.9 110.44-2.9L110.44-2.9Q113.49-2.9 115.92-4.17 118.34-5.45 120.07-7.58 121.79-9.7 122.69-12.35 123.59-15 123.59-17.75L123.59-17.75Q123.59-20.65 122.64-23.3 121.69-25.95 119.92-28.05 118.14-30.15 115.74-31.35 113.34-32.55 110.44-32.55L110.44-32.55Q107.44-32.55 105.02-31.3 102.59-30.05 100.87-27.93 99.14-25.8 98.22-23.15 97.29-20.5 97.29-17.75ZM137.19 0L133.69 0 133.69-35.5 148.69-35.5Q150.99-35.5 152.89-34.55 154.79-33.6 156.22-31.98 157.64-30.35 158.42-28.38 159.19-26.4 159.19-24.35L159.19-24.35Q159.19-21.8 158.22-19.55 157.24-17.3 155.47-15.75 153.69-14.2 151.29-13.7L151.29-13.7 159.99 0 156.04 0 147.69-13.1 137.19-13.1 137.19 0ZM137.19-32.4L137.19-16.2 148.79-16.2Q150.89-16.2 152.44-17.35 153.99-18.5 154.84-20.38 155.69-22.25 155.69-24.35L155.69-24.35Q155.69-26.5 154.72-28.33 153.74-30.15 152.12-31.28 150.49-32.4 148.49-32.4L148.49-32.4 137.19-32.4ZM191.19-35.5L191.19-32.4 178.54-32.4 178.54 0 175.04 0 175.04-32.4 162.39-32.4 162.39-35.5 191.19-35.5ZM218.94-31.65L217.24-28.85Q216.49-29.7 215.49-30.38 214.49-31.05 213.24-31.55 211.99-32.05 210.56-32.35 209.14-32.65 207.54-32.65L207.54-32.65Q202.89-32.65 200.71-30.88 198.54-29.1 198.54-26.05L198.54-26.05Q198.54-23.95 199.56-22.75 200.59-21.55 202.79-20.8 204.99-20.05 208.39-19.25L208.39-19.25Q212.19-18.45 214.94-17.35 217.69-16.25 219.19-14.38 220.69-12.5 220.69-9.3L220.69-9.3Q220.69-6.85 219.74-5.05 218.79-3.25 217.09-2.05 215.39-0.85 213.04-0.28 210.69 0.3 207.89 0.3L207.89 0.3Q205.14 0.3 202.61-0.28 200.09-0.85 197.84-1.98 195.59-3.1 193.64-4.85L193.64-4.85 195.39-7.7Q196.34-6.7 197.66-5.83 198.99-4.95 200.61-4.25 202.24-3.55 204.11-3.18 205.99-2.8 207.99-2.8L207.99-2.8Q212.24-2.8 214.61-4.35 216.99-5.9 216.99-8.95L216.99-8.95Q216.99-11.15 215.79-12.48 214.59-13.8 212.19-14.65 209.79-15.5 206.29-16.3L206.29-16.3Q202.59-17.15 200.04-18.2 197.49-19.25 196.21-20.98 194.94-22.7 194.94-25.55L194.94-25.55Q194.94-28.85 196.56-31.13 198.19-33.4 201.04-34.58 203.89-35.75 207.59-35.75L207.59-35.75Q209.94-35.75 211.96-35.27 213.99-34.8 215.71-33.9 217.44-33 218.94-31.65L218.94-31.65ZM251.38-35.5L254.83-35.5 254.83 0 251.38 0 251.38-16.6 230.33-16.6 230.33 0 226.83 0 226.83-35.5 230.33-35.5 230.33-19.7 251.38-19.7 251.38-35.5ZM278.18 0.25L278.18 0.25Q273.98 0.25 271.08-1.25 268.18-2.75 266.48-5.28 264.78-7.8 264.01-11 263.23-14.2 263.23-17.6L263.23-17.6 263.23-35.5 266.68-35.5 266.68-17.6Q266.68-14.85 267.26-12.2 267.83-9.55 269.13-7.45 270.43-5.35 272.63-4.13 274.83-2.9 278.13-2.9L278.13-2.9Q281.53-2.9 283.76-4.17 285.98-5.45 287.26-7.55 288.53-9.65 289.08-12.28 289.63-14.9 289.63-17.6L289.63-17.6 289.63-35.5 293.13-35.5 293.13-17.6Q293.13-14.05 292.33-10.8 291.53-7.55 289.76-5.1 287.98-2.65 285.13-1.2 282.28 0.25 278.18 0.25ZM328.18-9.15L328.18-9.15Q328.18-6.5 326.83-4.42 325.48-2.35 323.2-1.18 320.93 0 318.23 0L318.23 0 301.48 0 301.48-35.5 318.58-35.5Q321.08-35.5 322.9-34.18 324.73-32.85 325.7-30.78 326.68-28.7 326.68-26.45L326.68-26.45Q326.68-23.8 325.33-21.55 323.98-19.3 321.58-18.2L321.58-18.2Q324.63-17.3 326.4-14.85 328.18-12.4 328.18-9.15ZM324.68-9.75L324.68-9.75Q324.68-11.55 323.88-13.08 323.08-14.6 321.7-15.55 320.33-16.5 318.58-16.5L318.58-16.5 304.98-16.5 304.98-3.05 318.23-3.05Q320.03-3.05 321.48-4 322.93-4.95 323.8-6.48 324.68-8 324.68-9.75ZM317.48-32.45L304.98-32.45 304.98-19.35 317.18-19.35Q318.93-19.35 320.28-20.28 321.63-21.2 322.43-22.7 323.23-24.2 323.23-25.9L323.23-25.9Q323.23-27.7 322.48-29.18 321.73-30.65 320.43-31.55 319.13-32.45 317.48-32.45L317.48-32.45Z" opacity="1" transform="matrix(1,0,0,1,0,0)" fill="#ff4949" class="undefined-text-0" data-fill-palette-color="primary" id="text-0"></path></svg></g></svg></g></svg></g></svg></g><g transform="matrix(1,0,0,1,405.91718517898374,0)"><svg viewBox="0 0 60.86561072432433 60.86561072432433" height="60.86561072432433" width="60.86561072432433"><g data-palette-color="#eb1918"><rect width="16.63660026464865" height="60.86561072432433" fill="#eb1918" stroke="transparent" data-fill-palette-color="accent" x="0" fill-opacity="1"></rect><rect width="16.63660026464865" height="60.86561072432433" fill="#eb1918" stroke="transparent" data-fill-palette-color="accent" x="20.28853690810811" fill-opacity="0.75"></rect><rect width="16.63660026464865" height="60.86561072432433" fill="#eb1918" stroke="transparent" data-fill-palette-color="accent" x="40.57707381621622" fill-opacity="0.5"></rect></g></svg></g></svg></g><defs></defs></svg><rect width="395.52" height="51.57337966387152" fill="none" stroke="none" visibility="hidden"></rect></g></svg></g></svg>